<?xml version="1.0" encoding="UTF-8"?>
<svg id="Layer_2" data-name="Layer 2" xmlns="http://www.w3.org/2000/svg" viewBox="0 0 440.26 440.26">
  <defs>
    <style>
      .cls-1 {
        fill: none;
      }

      .cls-2 {
        stroke: #006177;
        stroke-miterlimit: 10;
        stroke-width: 6px;
      }

      .cls-2, .cls-3 {
        fill: #fffad5;
      }

      .cls-4 {
        fill: #006177;
      }
    </style>
  </defs>
  <g id="Layer_1-2" data-name="Layer 1">
    <g>
      <rect class="cls-1" width="440.26" height="440.26"/>
      <path class="cls-3" d="M414.79,155.62l-8.84-27.25c-9.72-29.93-28.15-57.36-53.32-79.34-23-20.09-50.51-34.46-77.47-40.47-32.12-7.16-60.95-1.81-80.48,14.65-23.12-12.53-50.06-14.44-76.69-5.28l-33.7,11.6,29.94,6.07c-14.48,5.46-26.88,15-36.4,28.04l-.45-27.18-17.68,34.24c-10.62,20.57-17.52,40.67-20.52,59.56l-8.76-17.15-3.84,31.48c-4.96,40.61,6.66,77.63,32.74,104.7-.12,1.94-.07,4.11.15,6.51-11.62,11.76-15.01,32.67-8.07,53.38,8.31,24.78,28.19,40.28,47.11,37.85,12.01,25.12,26.98,45.26,44.57,59.93,22.16,18.48,47.95,27.86,76.66,27.86s54.5-9.37,76.66-27.86c17.6-14.68,32.58-34.82,44.59-59.96,8.72,1.06,18.02-1.67,26.29-7.84,9.25-6.91,16.64-17.56,20.81-29.99,6.94-20.71,3.55-41.62-8.07-53.38.27-2.97.28-5.59.03-7.85,1.86-4.1,3.25-8.34,4.15-12.66,1.12-5.37,1.88-10.81,2.3-16.29,1.98,2.08,3.09,3.26,3.12,3.29l16.79,17.99v-24.6c0-25.66-3.19-50.17-9.32-72.26l17.69,12.21Z"/>
      <path class="cls-4" d="M219.76,65.68c-101.29,0-171.72,87.15-154.97,167.63,19.24,92.44,290.71,92.44,309.95,0,16.75-80.48-53.68-167.63-154.97-167.63Z"/>
      <path class="cls-4" d="M36.21,145.75c-13.52,110.82,103.97,159.38,169.18,121.31,42.2-24.64-26.89-32.8-89.79-46.64-46.49-10.23-79.39-74.66-79.39-74.66Z"/>
      <path class="cls-4" d="M68.33,75.14c-47.81,92.58-12.45,167.46,83.94,148.56,48.26-9.46-15.59-25.71-53.64-67.07-29.49-32.05-30.29-81.49-30.29-81.49Z"/>
      <path class="cls-4" d="M121.14,27.09c63.39-21.8,117.98,28.24,117.19,92.06-.51,41.3-20.26-16.82-52.59-54.78-25.05-29.42-64.61-37.28-64.61-37.28Z"/>
      <path class="cls-4" d="M70.99,101.16c20.88-79.25,106.34-75.11,152.69-24.21,30,32.93-81.39,70.01-132.35,95.67-22.92,11.54-20.34-71.46-20.34-71.46Z"/>
      <path class="cls-4" d="M396.73,215.67c0-94-45.23-193.76-162.53-160.22-45.71,13.07,5.24,31.75,60.69,68.58,42.97,28.54,101.84,91.64,101.84,91.64Z"/>
      <path class="cls-4" d="M396.73,131.37C360.52,19.83,204.08-30.01,179.85,66.12c-12.38,49.12,36.69,10.54,106.27,19.31,53.92,6.8,110.6,45.93,110.6,45.93Z"/>
      <g>
        <ellipse class="cls-3" cx="88.02" cy="296.89" rx="28.92" ry="41.76" transform="translate(-89.82 43.39) rotate(-18.54)"/>
        <path class="cls-4" d="M94.68,339.92c-5.99,0-12.21-2.25-18.08-6.64-8.07-6.03-14.55-15.42-18.24-26.45-3.7-11.03-4.19-22.43-1.39-32.1,2.89-9.98,8.94-16.97,17.02-19.68,8.08-2.71,17.12-.78,25.44,5.44,8.07,6.03,14.55,15.42,18.24,26.45,3.7,11.03,4.19,22.43,1.39,32.1-2.89,9.98-8.94,16.97-17.02,19.68-2.39.8-4.85,1.2-7.36,1.2ZM81.33,258.6c-2,0-3.96.31-5.84.94-6.57,2.2-11.53,8.07-13.98,16.51-2.54,8.76-2.07,19.15,1.33,29.28,3.4,10.12,9.29,18.71,16.59,24.16,7.05,5.26,14.54,6.95,21.11,4.75,6.57-2.2,11.53-8.07,13.98-16.51,2.54-8.76,2.07-19.15-1.33-29.28-3.4-10.12-9.29-18.71-16.59-24.16-5.03-3.76-10.28-5.69-15.27-5.69Z"/>
      </g>
      <g>
        <ellipse class="cls-3" cx="351.49" cy="296.89" rx="41.76" ry="28.92" transform="translate(-41.74 535.76) rotate(-71.46)"/>
        <path class="cls-4" d="M344.83,339.92c-2.51,0-4.98-.4-7.36-1.2-8.08-2.71-14.12-9.7-17.02-19.68-2.8-9.67-2.31-21.07,1.39-32.1,3.7-11.03,10.18-20.42,18.24-26.45,8.33-6.22,17.36-8.15,25.44-5.44,8.08,2.71,14.12,9.7,17.02,19.68,2.8,9.67,2.31,21.07-1.39,32.1-3.7,11.03-10.18,20.42-18.24,26.45-5.87,4.38-12.09,6.64-18.08,6.64ZM358.18,258.6c-4.98,0-10.24,1.93-15.27,5.69-7.3,5.46-13.2,14.04-16.59,24.16-3.39,10.12-3.87,20.52-1.33,29.28,2.45,8.45,7.41,14.31,13.98,16.51,6.57,2.2,14.06.52,21.11-4.75,7.3-5.46,13.2-14.04,16.59-24.16,3.39-10.12,3.87-20.52,1.33-29.28-2.45-8.45-7.41-14.31-13.98-16.51-1.88-.63-3.84-.94-5.84-.94Z"/>
      </g>
      <g>
        <path class="cls-3" d="M219.76,140.84c-87.28,0-147.97,72.19-133.54,138.86,16.58,76.58,58.84,145.42,133.54,145.42s116.96-68.84,133.54-145.42c14.43-66.67-46.26-138.86-133.54-138.86Z"/>
        <path class="cls-4" d="M219.76,428.27c-35.81,0-66.42-15.19-91-45.15-20.77-25.31-36.55-60.85-45.62-102.76-6.64-30.69,2.05-63.78,23.85-90.81,26.59-32.97,67.7-51.87,112.77-51.87s86.18,18.91,112.77,51.87c21.8,27.02,30.49,60.12,23.85,90.81-9.07,41.91-24.85,77.44-45.62,102.76-24.58,29.96-55.2,45.15-91,45.15ZM219.76,143.99c-43.16,0-82.47,18.05-107.86,49.53-20.6,25.53-28.83,56.7-22.59,85.51,9.3,42.98,40.64,142.93,130.46,142.93s121.16-99.96,130.46-142.93c6.24-28.81-2-59.98-22.59-85.51-25.39-31.47-64.71-49.53-107.86-49.53Z"/>
      </g>
      <path class="cls-4" d="M369.8,246.5c-3.68-5.98-30.75-10.37-49.03-10.69,0,0,.03.02.07.05-9.48-.22-19.45.44-28.32,1.22-20.48,1.79-38.24,5.34-50.26,10.39,0,0,0-.01,0-.01,0,0-.12.05-.33.15-4.52,1.93-8.21,4.07-10.9,6.42,0,0-.02.01-.03.02-6.91,5.55-7.63,4.5-11.26,4.82-3.63-.32-4.35.72-11.26-4.82,0,0-.02-.01-.03-.02-2.69-2.35-6.38-4.49-10.9-6.42-.21-.09-.33-.15-.33-.15,0,0,0,0,0,.01-12.02-5.05-29.77-8.6-50.26-10.39-8.86-.78-18.84-1.44-28.32-1.22.04-.03.07-.05.07-.05-18.28.32-45.35,4.71-49.03,10.69-1.68,2.73,0,12.84,0,12.84,0,3.37,6.24,6.56,7.82,9.54,2.75,5.18,5.08,11.23,6.55,15.39.48,1.61,1.03,3.22,1.62,4.84.04.12.06.19.06.19,0,0,0,0,0,0,1.91,5.18,4.4,10.54,7.64,16.55,2.16,4.01,12.21,13.8,52.82,13.8s47.56-10.11,50.23-13.8c9.24-12.75,13.24-23.14,15.5-33.07.72-.68,2.65-1.58,7.79-1.58s7.07.91,7.79,1.58c2.26,9.93,6.26,20.32,15.5,33.07,2.67,3.68,8.23,13.8,50.23,13.8s50.66-9.79,52.82-13.8c3.24-6,5.73-11.36,7.64-16.55,0,0,0,0,0,0,0,0,.02-.07.06-.19.59-1.63,1.14-3.24,1.62-4.85,1.47-4.16,3.8-10.21,6.55-15.39,1.58-2.98,7.82-6.17,7.82-9.54,0,0,1.68-10.1,0-12.84ZM205.98,267.09c-1.78,10.45-4.74,20.87-15.05,34.45-2.37,3.12-7.31,11.69-44.6,11.69s-44.98-8.29-46.89-11.69c-8.57-15.17-11.41-25.52-11.41-41.43,0-20.01,34.34-18.88,58.98-16.82,35.01,2.92,61.1,11.33,58.98,23.8ZM340.08,301.54c-1.92,3.39-10.84,11.69-46.89,11.69s-42.23-8.56-44.6-11.69c-10.31-13.58-13.28-24-15.05-34.45-2.12-12.47,23.97-20.87,58.98-23.8,24.64-2.06,58.98-3.19,58.98,16.82,0,15.91-2.84,26.26-11.41,41.43Z"/>
      <path class="cls-4" d="M219.76,376.47c-25.16,0-38.87-21.16-39.44-22.06-2.01-3.17-1.07-7.36,2.1-9.37,3.16-2,7.34-1.07,9.35,2.08.18.28,10.48,15.78,27.99,15.78s27.89-15.62,27.99-15.78c2.03-3.14,6.22-4.06,9.37-2.04,3.15,2.02,4.08,6.18,2.08,9.34-.57.9-14.27,22.06-39.44,22.06Z"/>
      <g>
        <circle class="cls-3" cx="150.02" cy="277.73" r="35.99"/>
        <path class="cls-4" d="M150.02,316.08c-21.15,0-38.35-17.21-38.35-38.35s17.21-38.35,38.35-38.35,38.35,17.21,38.35,38.35-17.21,38.35-38.35,38.35ZM150.02,244.1c-18.54,0-33.63,15.08-33.63,33.63s15.08,33.63,33.63,33.63,33.63-15.08,33.63-33.63-15.08-33.63-33.63-33.63Z"/>
      </g>
      <circle class="cls-4" cx="150.02" cy="277.73" r="29.25"/>
      <circle class="cls-3" cx="141.43" cy="269.14" r="12.91"/>
      <circle class="cls-3" cx="157.43" cy="287.55" r="6.45"/>
      <path class="cls-4" d="M197.29,241.43c-.89,0-1.79-.18-2.66-.55-.19-.08-19.75-8.34-39.01-10.26-19.26-1.92-40.06,2.33-40.27,2.38-3.67.76-7.26-1.59-8.03-5.26-.76-3.67,1.59-7.26,5.26-8.03.93-.19,23-4.72,44.38-2.6,21.38,2.13,42.13,10.91,43,11.28,3.45,1.47,5.05,5.46,3.57,8.91-1.1,2.58-3.61,4.12-6.24,4.12Z"/>
      <g>
        <circle class="cls-3" cx="287.48" cy="277.73" r="35.99"/>
        <path class="cls-4" d="M287.48,316.08c-21.15,0-38.35-17.21-38.35-38.35s17.21-38.35,38.35-38.35,38.35,17.21,38.35,38.35-17.21,38.35-38.35,38.35ZM287.48,244.1c-18.54,0-33.63,15.08-33.63,33.63s15.08,33.63,33.63,33.63,33.63-15.08,33.63-33.63-15.08-33.63-33.63-33.63Z"/>
      </g>
      <circle class="cls-4" cx="287.48" cy="277.73" r="29.25"/>
      <path class="cls-3" d="M291.81,269.14c0,7.13-5.78,12.91-12.91,12.91-7.13,0-12.91-5.78-12.91-12.91s5.78-12.91,12.91-12.91,12.91,5.78,12.91,12.91Z"/>
      <path class="cls-3" d="M301.34,287.55c0,3.56-2.89,6.45-6.45,6.45-3.56,0-6.45-2.89-6.45-6.45s2.89-6.45,6.45-6.45c3.56,0,6.45,2.89,6.45,6.45Z"/>
      <path class="cls-4" d="M240.21,241.43c.89,0,1.79-.18,2.66-.55.19-.08,19.75-8.34,39.01-10.26,19.26-1.92,40.06,2.33,40.27,2.38,3.67.76,7.26-1.59,8.03-5.26.76-3.67-1.59-7.26-5.26-8.03-.93-.19-23-4.72-44.38-2.6-21.38,2.13-42.13,10.91-43,11.28-3.45,1.47-5.05,5.46-3.57,8.91,1.1,2.58,3.61,4.12,6.24,4.12Z"/>
      <path class="cls-2" d="M244.42,312.25c-16.87-40.45-11.04-48.18-24.66-48.18s-7.79,7.73-24.66,48.18c-5.24,12.57,11.04,24.66,24.66,24.66s29.91-12.09,24.66-24.66Z"/>
      <path class="cls-4" d="M304.85,201.74c11.98-21.3,8.3-56.39,8.3-56.39-33.3-37.85-47.16-34.06-99.98-26.29-27.9,4.1,16.45,16.17,50.02,39.99,26.02,18.46,41.67,42.7,41.67,42.7Z"/>
      <path class="cls-4" d="M271.19,213.64c46.35-83.43-14.45-86.54-46.92-86.18-21.02.24,8.57,14.9,27.91,38.71,14.99,18.45,19.01,47.46,19.01,47.46Z"/>
      <path class="cls-4" d="M124.45,210.38c12.78-60.24,64.76-92.98,102.45-74.58,24.39,11.91-18.25,12.64-53.99,29.72-27.7,13.24-48.45,44.86-48.45,44.86Z"/>
    </g>
  </g>
</svg>