<?xml version="1.0" encoding="UTF-8"?>
<svg id="Layer_2" data-name="Layer 2" xmlns="http://www.w3.org/2000/svg" viewBox="0 0 440.26 440.26">
  <defs>
    <style>
      .cls-1 {
        stroke: #006177;
        stroke-miterlimit: 10;
        stroke-width: 6px;
      }

      .cls-1, .cls-2 {
        fill: #fffad5;
      }

      .cls-3 {
        fill: #006177;
      }
    </style>
  </defs>
  <g id="Layer_1-2" data-name="Layer 1">
    <g>
      <rect class="cls-3" width="440.26" height="440.26"/>
      <path class="cls-2" d="M392.44,163.02l-7.83-24.12c-8.6-26.49-24.92-50.77-47.2-70.23-20.36-17.78-44.71-30.5-68.58-35.82-28.43-6.34-53.95-1.61-71.24,12.97-20.47-11.09-44.32-12.78-67.88-4.68l-29.83,10.27,26.5,5.37c-12.82,4.83-23.8,13.27-32.22,24.82l-.39-24.06-15.65,30.31c-9.4,18.21-15.51,36-18.17,52.72l-7.75-15.18-3.4,27.87c-4.39,35.95,5.89,68.72,28.98,92.68-.11,1.71-.06,3.64.13,5.76-10.29,10.41-13.29,28.92-7.14,47.25,7.36,21.94,24.95,35.66,41.7,33.51,10.63,22.24,23.88,40.06,39.46,53.05,19.62,16.36,42.45,24.66,67.86,24.66s48.24-8.3,67.86-24.66c15.58-12.99,28.84-30.83,39.47-53.07,7.72.93,15.95-1.48,23.27-6.94,8.19-6.12,14.73-15.55,18.42-26.55,6.15-18.33,3.15-36.84-7.14-47.25.24-2.63.25-4.95.03-6.95,1.65-3.63,2.88-7.39,3.68-11.21.99-4.75,1.67-9.56,2.03-14.42,1.76,1.84,2.73,2.89,2.76,2.91l14.86,15.92v-21.78c0-22.71-2.82-44.41-8.25-63.96l15.66,10.81Z"/>
      <path class="cls-3" d="M219.8,83.41c-89.66,0-152.01,77.14-137.18,148.38,17.03,81.83,257.33,81.83,274.36,0,14.83-71.24-47.52-148.38-137.18-148.38Z"/>
      <path class="cls-3" d="M57.33,154.29c-11.97,98.1,92.04,141.08,149.75,107.38,37.35-21.81-23.8-29.04-79.48-41.29-41.16-9.06-70.28-66.09-70.28-66.09Z"/>
      <path class="cls-3" d="M85.76,91.79c-42.32,81.95-11.02,148.23,74.3,131.5,42.72-8.37-13.8-22.76-47.49-59.37-26.11-28.37-26.82-72.14-26.82-72.14Z"/>
      <path class="cls-3" d="M132.51,49.26c56.11-19.3,104.43,25,103.74,81.49-.45,36.56-17.93-14.89-46.55-48.49-22.18-26.04-57.19-33-57.19-33Z"/>
      <path class="cls-3" d="M88.12,114.82c18.48-70.15,94.13-66.48,135.16-21.43,26.55,29.15-72.04,61.98-117.15,84.69-20.29,10.21-18-63.25-18-63.25Z"/>
      <path class="cls-3" d="M376.45,216.18c0-83.2-40.04-171.51-143.86-141.82-40.46,11.57,4.64,28.1,53.72,60.71,38.04,25.26,90.14,81.11,90.14,81.11Z"/>
      <path class="cls-3" d="M376.45,141.56C344.4,42.83,205.93-1.29,184.48,83.81c-10.96,43.48,32.47,9.33,94.07,17.1,47.73,6.02,97.91,40.65,97.91,40.65Z"/>
      <g>
        <ellipse class="cls-2" cx="103.19" cy="288.08" rx="25.6" ry="36.97" transform="translate(-86.23 47.75) rotate(-18.54)"/>
        <path class="cls-3" d="M109.09,326.17c-5.3,0-10.81-2-16-5.88-7.14-5.33-12.88-13.65-16.15-23.41-3.27-9.76-3.71-19.85-1.23-28.41,2.56-8.84,7.91-15.02,15.06-17.42,7.15-2.4,15.15-.69,22.52,4.82,7.14,5.33,12.88,13.65,16.15,23.41,3.27,9.76,3.71,19.85,1.23,28.41-2.56,8.84-7.91,15.02-15.06,17.42-2.11.71-4.3,1.06-6.52,1.06ZM97.27,254.18c-1.77,0-3.5.28-5.17.83-5.81,1.95-10.21,7.14-12.37,14.62-2.25,7.75-1.83,16.96,1.18,25.92,3.01,8.96,8.22,16.56,14.69,21.39,6.24,4.66,12.87,6.15,18.68,4.2,5.81-1.95,10.21-7.14,12.37-14.62,2.25-7.75,1.83-16.96-1.18-25.92-3.01-8.96-8.22-16.56-14.69-21.39-4.45-3.32-9.1-5.04-13.52-5.04Z"/>
      </g>
      <g>
        <ellipse class="cls-2" cx="336.41" cy="288.08" rx="36.97" ry="25.6" transform="translate(-43.67 515.45) rotate(-71.46)"/>
        <path class="cls-3" d="M330.51,326.17c-2.22,0-4.41-.35-6.52-1.06-7.15-2.4-12.5-8.59-15.06-17.42-2.48-8.56-2.05-18.65,1.23-28.41,3.27-9.76,9.01-18.07,16.15-23.41,7.37-5.51,15.37-7.22,22.52-4.82,7.15,2.4,12.5,8.59,15.06,17.42,2.48,8.56,2.05,18.65-1.23,28.41-3.27,9.76-9.01,18.07-16.15,23.41-5.19,3.88-10.7,5.88-16,5.88ZM342.33,254.18c-4.41,0-9.07,1.71-13.52,5.04-6.47,4.83-11.68,12.43-14.69,21.39-3,8.96-3.42,18.17-1.18,25.92,2.17,7.48,6.56,12.67,12.37,14.62,5.81,1.95,12.45.46,18.68-4.2,6.47-4.83,11.68-12.43,14.69-21.39,3-8.96,3.42-18.17,1.18-25.92-2.17-7.48-6.56-12.67-12.37-14.62-1.66-.56-3.4-.83-5.17-.83Z"/>
      </g>
      <g>
        <path class="cls-2" d="M219.8,149.94c-77.26,0-130.98,63.9-118.21,122.92,14.67,67.78,52.08,128.72,118.21,128.72s103.53-60.94,118.21-128.72c12.78-59.01-40.95-122.92-118.21-122.92Z"/>
        <path class="cls-3" d="M219.8,404.37c-31.69,0-58.8-13.45-80.55-39.96-18.39-22.41-32.35-53.86-40.38-90.96-5.88-27.16,1.81-56.46,21.11-80.38,23.54-29.18,59.92-45.92,99.82-45.92s76.28,16.74,99.82,45.92c19.3,23.92,26.99,53.22,21.11,80.38-8.03,37.1-21.99,68.55-40.38,90.96-21.76,26.52-48.86,39.96-80.55,39.96ZM219.8,152.73c-38.2,0-73,15.98-95.48,43.84-18.23,22.6-25.52,50.19-20,75.7,8.24,38.04,35.97,126.52,115.48,126.52s107.24-88.48,115.48-126.52c5.52-25.5-1.77-53.09-20-75.7-22.47-27.86-57.28-43.84-95.48-43.84Z"/>
      </g>
      <path class="cls-3" d="M352.61,243.47c-3.26-5.29-27.22-9.18-43.4-9.46,0,0,.03.02.06.04-8.39-.2-17.22.39-25.06,1.08-18.13,1.59-33.85,4.73-44.49,9.2,0,0,0,0,0,0,0,0-.11.05-.3.13-4,1.71-7.27,3.6-9.65,5.68,0,0-.02.01-.02.02-6.11,4.91-6.75,3.98-9.97,4.27-3.21-.29-3.85.64-9.97-4.27,0,0-.02-.01-.02-.02-2.38-2.08-5.65-3.97-9.65-5.68-.19-.08-.3-.13-.3-.13,0,0,0,0,0,0-10.64-4.47-26.36-7.61-44.49-9.2-7.85-.69-16.68-1.27-25.06-1.08.04-.02.06-.04.06-.04-16.18.28-40.14,4.17-43.4,9.46-1.49,2.42,0,11.36,0,11.36,0,2.99,5.53,5.81,6.93,8.45,2.43,4.58,4.49,9.94,5.8,13.62.42,1.42.91,2.85,1.43,4.29.03.1.05.16.05.16,0,0,0,0,0,0,1.69,4.59,3.9,9.33,6.76,14.65,1.91,3.55,10.81,12.21,46.76,12.21s42.1-8.95,44.47-12.21c8.18-11.28,11.72-20.48,13.72-29.27.64-.6,2.35-1.4,6.9-1.4s6.26.8,6.9,1.4c2,8.79,5.54,17.99,13.72,29.27,2.36,3.26,7.29,12.21,44.47,12.21s44.85-8.67,46.76-12.21c2.86-5.31,5.07-10.06,6.76-14.65,0,0,0,0,0,0,0,0,.02-.06.05-.16.53-1.44,1.01-2.87,1.43-4.29,1.3-3.69,3.36-9.04,5.8-13.62,1.4-2.64,6.93-5.46,6.93-8.45,0,0,1.49-8.94,0-11.36ZM207.6,261.7c-1.57,9.25-4.19,18.48-13.32,30.49-2.1,2.76-6.47,10.34-39.48,10.34s-39.81-7.34-41.51-10.34c-7.59-13.43-10.1-22.59-10.1-36.67,0-17.71,30.39-16.71,52.21-14.89,30.99,2.59,54.08,10.03,52.21,21.07ZM326.31,292.19c-1.7,3-9.6,10.34-41.51,10.34s-37.38-7.58-39.48-10.34c-9.13-12.02-11.75-21.24-13.32-30.49-1.87-11.04,21.22-18.48,52.21-21.07,21.81-1.82,52.21-2.82,52.21,14.89,0,14.08-2.51,23.24-10.1,36.67Z"/>
      <path class="cls-3" d="M219.8,358.52c-22.27,0-34.4-18.73-34.91-19.53-1.78-2.8-.94-6.52,1.86-8.29,2.8-1.77,6.5-.95,8.28,1.84.16.25,9.27,13.97,24.77,13.97s24.68-13.83,24.77-13.97c1.79-2.78,5.51-3.59,8.29-1.81,2.79,1.78,3.61,5.47,1.84,8.27-.51.8-12.63,19.53-34.91,19.53Z"/>
      <g>
        <circle class="cls-2" cx="158.07" cy="271.11" r="31.86"/>
        <path class="cls-3" d="M158.07,305.06c-18.72,0-33.95-15.23-33.95-33.95s15.23-33.95,33.95-33.95,33.95,15.23,33.95,33.95-15.23,33.95-33.95,33.95ZM158.07,241.35c-16.41,0-29.76,13.35-29.76,29.76s13.35,29.76,29.76,29.76,29.76-13.35,29.76-29.76-13.35-29.76-29.76-29.76Z"/>
      </g>
      <circle class="cls-3" cx="158.07" cy="271.11" r="25.89"/>
      <circle class="cls-2" cx="150.47" cy="263.52" r="11.43"/>
      <circle class="cls-2" cx="164.63" cy="279.81" r="5.71"/>
      <path class="cls-3" d="M199.91,238.98c-.79,0-1.59-.16-2.36-.48-.17-.07-17.48-7.39-34.53-9.08-17.05-1.7-35.46,2.07-35.65,2.1-3.25.67-6.43-1.41-7.11-4.66-.68-3.25,1.41-6.43,4.65-7.11.82-.17,20.36-4.18,39.29-2.3,18.93,1.88,37.29,9.66,38.06,9.99,3.05,1.3,4.47,4.84,3.16,7.89-.97,2.28-3.19,3.65-5.53,3.65Z"/>
      <g>
        <circle class="cls-2" cx="279.75" cy="271.11" r="31.86"/>
        <path class="cls-3" d="M279.75,305.06c-18.72,0-33.95-15.23-33.95-33.95s15.23-33.95,33.95-33.95,33.95,15.23,33.95,33.95-15.23,33.95-33.95,33.95ZM279.75,241.35c-16.41,0-29.76,13.35-29.76,29.76s13.35,29.76,29.76,29.76,29.76-13.35,29.76-29.76-13.35-29.76-29.76-29.76Z"/>
      </g>
      <path class="cls-3" d="M305.64,271.11c0,14.3-11.59,25.89-25.89,25.89-14.3,0-25.89-11.59-25.89-25.89s11.59-25.89,25.89-25.89,25.89,11.59,25.89,25.89Z"/>
      <path class="cls-2" d="M283.58,263.52c0,6.31-5.12,11.43-11.43,11.43-6.31,0-11.43-5.12-11.43-11.43s5.12-11.43,11.43-11.43,11.43,5.12,11.43,11.43Z"/>
      <path class="cls-2" d="M292.02,279.81c0,3.16-2.56,5.71-5.71,5.71-3.16,0-5.71-2.56-5.71-5.71s2.56-5.71,5.71-5.71c3.16,0,5.71,2.56,5.71,5.71Z"/>
      <path class="cls-3" d="M237.9,238.98c.79,0,1.59-.16,2.36-.48.17-.07,17.48-7.39,34.53-9.08,17.05-1.7,35.46,2.07,35.65,2.1,3.25.67,6.43-1.41,7.11-4.66.68-3.25-1.41-6.43-4.65-7.11-.82-.17-20.36-4.18-39.29-2.3-18.93,1.88-37.29,9.66-38.06,9.99-3.05,1.3-4.47,4.84-3.16,7.89.97,2.28,3.19,3.65,5.53,3.65Z"/>
      <path class="cls-1" d="M241.63,301.67c-14.93-35.8-9.77-42.65-21.83-42.65s-6.9,6.85-21.83,42.65c-4.64,11.13,9.77,21.83,21.83,21.83s26.47-10.7,21.83-21.83Z"/>
      <path class="cls-3" d="M295.13,203.85c10.6-18.85,7.34-49.92,7.34-49.92-29.48-33.5-41.75-30.15-88.5-23.28-24.7,3.63,14.56,14.32,44.28,35.4,23.03,16.34,36.88,37.79,36.88,37.79Z"/>
      <path class="cls-3" d="M265.33,214.38c41.03-73.85-12.79-76.61-41.53-76.28-18.6.21,7.59,13.19,24.71,34.27,13.26,16.34,16.83,42.01,16.83,42.01Z"/>
      <path class="cls-3" d="M135.43,211.5c11.31-53.32,57.32-82.31,90.68-66.02,21.59,10.54-16.16,11.19-47.8,26.31-24.52,11.72-42.89,39.71-42.89,39.71Z"/>
    </g>
  </g>
</svg>