{
	"asset":{
		"generator":"Khronos glTF Blender I/O v4.3.47",
		"version":"2.0"
	},
	"scene":0,
	"scenes":[
		{
			"name":"Scene",
			"nodes":[
				0,
				1,
				2,
				3,
				4,
				5,
				6
			]
		}
	],
	"nodes":[
		{
			"mesh":0,
			"name":"i2dot",
			"rotation":[
				0.7071068286895752,
				0,
				0,
				0.7071068286895752
			]
		},
		{
			"mesh":1,
			"name":"dot",
			"rotation":[
				0.7071068286895752,
				0,
				0,
				0.7071068286895752
			]
		},
		{
			"mesh":2,
			"name":"i2body",
			"rotation":[
				0.7071068286895752,
				0,
				0,
				0.7071068286895752
			]
		},
		{
			"mesh":3,
			"name":"i1",
			"rotation":[
				0.7071068286895752,
				0,
				0,
				0.7071068286895752
			]
		},
		{
			"mesh":4,
			"name":"m",
			"rotation":[
				0.7071068286895752,
				0,
				0,
				0.7071068286895752
			]
		},
		{
			"mesh":5,
			"name":"tla",
			"rotation":[
				0.7071068286895752,
				0,
				0,
				0.7071068286895752
			]
		},
		{
			"mesh":6,
			"name":"r",
			"rotation":[
				0.7071068286895752,
				0,
				0,
				0.7071068286895752
			]
		}
	],
	"materials":[
		{
			"doubleSided":true,
			"name":"SVGMat",
			"pbrMetallicRoughness":{
				"baseColorFactor":[
					1,
					0.9559743404388428,
					0.6583752036094666,
					1
				],
				"metallicFactor":0.30000001192092896,
				"roughnessFactor":0.6000000238418579
			}
		}
	],
	"meshes":[
		{
			"name":"Curve",
			"primitives":[
				{
					"attributes":{
						"POSITION":0,
						"NORMAL":1,
						"TEXCOORD_0":2
					},
					"indices":3,
					"material":0
				}
			]
		},
		{
			"name":"Curve.001",
			"primitives":[
				{
					"attributes":{
						"POSITION":4,
						"NORMAL":5,
						"TEXCOORD_0":6
					},
					"indices":3,
					"material":0
				}
			]
		},
		{
			"name":"Curve.002",
			"primitives":[
				{
					"attributes":{
						"POSITION":7,
						"NORMAL":8,
						"TEXCOORD_0":9
					},
					"indices":10,
					"material":0
				}
			]
		},
		{
			"name":"Curve.003",
			"primitives":[
				{
					"attributes":{
						"POSITION":11,
						"NORMAL":12,
						"TEXCOORD_0":13
					},
					"indices":14,
					"material":0
				}
			]
		},
		{
			"name":"Curve.004",
			"primitives":[
				{
					"attributes":{
						"POSITION":15,
						"NORMAL":16,
						"TEXCOORD_0":17
					},
					"indices":18,
					"material":0
				}
			]
		},
		{
			"name":"Curve.005",
			"primitives":[
				{
					"attributes":{
						"POSITION":19,
						"NORMAL":20,
						"TEXCOORD_0":21
					},
					"indices":22,
					"material":0
				}
			]
		},
		{
			"name":"Curve.006",
			"primitives":[
				{
					"attributes":{
						"POSITION":23,
						"NORMAL":24,
						"TEXCOORD_0":25
					},
					"indices":26,
					"material":0
				}
			]
		}
	],
	"accessors":[
		{
			"bufferView":0,
			"componentType":5126,
			"count":684,
			"max":[
				0.18638406693935394,
				0.016999999061226845,
				-0.0674314796924591
			],
			"min":[
				0.17070208489894867,
				-0.016999999061226845,
				-0.0831110030412674
			],
			"type":"VEC3"
		},
		{
			"bufferView":1,
			"componentType":5126,
			"count":684,
			"type":"VEC3"
		},
		{
			"bufferView":2,
			"componentType":5126,
			"count":684,
			"type":"VEC2"
		},
		{
			"bufferView":3,
			"componentType":5123,
			"count":3444,
			"type":"SCALAR"
		},
		{
			"bufferView":4,
			"componentType":5126,
			"count":684,
			"max":[
				0.07763033360242844,
				0.016999999061226845,
				0.001849320949986577
			],
			"min":[
				0.061948344111442566,
				-0.016999999061226845,
				-0.01383018959313631
			],
			"type":"VEC3"
		},
		{
			"bufferView":5,
			"componentType":5126,
			"count":684,
			"type":"VEC3"
		},
		{
			"bufferView":6,
			"componentType":5126,
			"count":684,
			"type":"VEC2"
		},
		{
			"bufferView":7,
			"componentType":5126,
			"count":1020,
			"max":[
				0.18537671864032745,
				0.00800000037997961,
				0.0009429986821487546
			],
			"min":[
				0.1717037707567215,
				-0.00800000037997961,
				-0.06567243486642838
			],
			"type":"VEC3"
		},
		{
			"bufferView":8,
			"componentType":5126,
			"count":1020,
			"type":"VEC3"
		},
		{
			"bufferView":9,
			"componentType":5126,
			"count":1020,
			"type":"VEC2"
		},
		{
			"bufferView":10,
			"componentType":5123,
			"count":5172,
			"type":"SCALAR"
		},
		{
			"bufferView":11,
			"componentType":5126,
			"count":1020,
			"max":[
				0.11860158294439316,
				0.01599999889731407,
				-0.08777638524770737
			],
			"min":[
				0.10499636828899384,
				-0.01599999889731407,
				-0.12060780078172684
			],
			"type":"VEC3"
		},
		{
			"bufferView":12,
			"componentType":5126,
			"count":1020,
			"type":"VEC3"
		},
		{
			"bufferView":13,
			"componentType":5126,
			"count":1020,
			"type":"VEC2"
		},
		{
			"bufferView":14,
			"componentType":5123,
			"count":5172,
			"type":"SCALAR"
		},
		{
			"bufferView":15,
			"componentType":5126,
			"count":19741,
			"max":[
				0.1853485107421875,
				0.009000000543892384,
				-0.087779201567173
			],
			"min":[
				0.1257457733154297,
				-0.009000000543892384,
				-0.13604021072387695
			],
			"type":"VEC3"
		},
		{
			"bufferView":16,
			"componentType":5126,
			"count":19741,
			"type":"VEC3"
		},
		{
			"bufferView":17,
			"componentType":5126,
			"count":19741,
			"type":"VEC2"
		},
		{
			"bufferView":18,
			"componentType":5123,
			"count":101292,
			"type":"SCALAR"
		},
		{
			"bufferView":19,
			"componentType":5126,
			"count":10429,
			"max":[
				0.1702679693698883,
				0.010999999940395355,
				0.0010053181322291493
			],
			"min":[
				-0.001002262462861836,
				-0.010999999940395355,
				-0.13604015111923218
			],
			"type":"VEC3"
		},
		{
			"bufferView":20,
			"componentType":5126,
			"count":10429,
			"type":"VEC3"
		},
		{
			"bufferView":21,
			"componentType":5126,
			"count":10429,
			"type":"VEC2"
		},
		{
			"bufferView":22,
			"componentType":5123,
			"count":53424,
			"type":"SCALAR"
		},
		{
			"bufferView":23,
			"componentType":5126,
			"count":2768,
			"max":[
				0.04599577561020851,
				0.007000000216066837,
				0.0009401822462677956
			],
			"min":[
				-0.0010000000474974513,
				-0.007000000216066837,
				-0.08181585371494293
			],
			"type":"VEC3"
		},
		{
			"bufferView":24,
			"componentType":5126,
			"count":2768,
			"type":"VEC3"
		},
		{
			"bufferView":25,
			"componentType":5126,
			"count":2768,
			"type":"VEC2"
		},
		{
			"bufferView":26,
			"componentType":5123,
			"count":14112,
			"type":"SCALAR"
		}
	],
	"bufferViews":[
		{
			"buffer":0,
			"byteLength":8208,
			"byteOffset":0,
			"target":34962
		},
		{
			"buffer":0,
			"byteLength":8208,
			"byteOffset":8208,
			"target":34962
		},
		{
			"buffer":0,
			"byteLength":5472,
			"byteOffset":16416,
			"target":34962
		},
		{
			"buffer":0,
			"byteLength":6888,
			"byteOffset":21888,
			"target":34963
		},
		{
			"buffer":0,
			"byteLength":8208,
			"byteOffset":28776,
			"target":34962
		},
		{
			"buffer":0,
			"byteLength":8208,
			"byteOffset":36984,
			"target":34962
		},
		{
			"buffer":0,
			"byteLength":5472,
			"byteOffset":45192,
			"target":34962
		},
		{
			"buffer":0,
			"byteLength":12240,
			"byteOffset":50664,
			"target":34962
		},
		{
			"buffer":0,
			"byteLength":12240,
			"byteOffset":62904,
			"target":34962
		},
		{
			"buffer":0,
			"byteLength":8160,
			"byteOffset":75144,
			"target":34962
		},
		{
			"buffer":0,
			"byteLength":10344,
			"byteOffset":83304,
			"target":34963
		},
		{
			"buffer":0,
			"byteLength":12240,
			"byteOffset":93648,
			"target":34962
		},
		{
			"buffer":0,
			"byteLength":12240,
			"byteOffset":105888,
			"target":34962
		},
		{
			"buffer":0,
			"byteLength":8160,
			"byteOffset":118128,
			"target":34962
		},
		{
			"buffer":0,
			"byteLength":10344,
			"byteOffset":126288,
			"target":34963
		},
		{
			"buffer":0,
			"byteLength":236892,
			"byteOffset":136632,
			"target":34962
		},
		{
			"buffer":0,
			"byteLength":236892,
			"byteOffset":373524,
			"target":34962
		},
		{
			"buffer":0,
			"byteLength":157928,
			"byteOffset":610416,
			"target":34962
		},
		{
			"buffer":0,
			"byteLength":202584,
			"byteOffset":768344,
			"target":34963
		},
		{
			"buffer":0,
			"byteLength":125148,
			"byteOffset":970928,
			"target":34962
		},
		{
			"buffer":0,
			"byteLength":125148,
			"byteOffset":1096076,
			"target":34962
		},
		{
			"buffer":0,
			"byteLength":83432,
			"byteOffset":1221224,
			"target":34962
		},
		{
			"buffer":0,
			"byteLength":106848,
			"byteOffset":1304656,
			"target":34963
		},
		{
			"buffer":0,
			"byteLength":33216,
			"byteOffset":1411504,
			"target":34962
		},
		{
			"buffer":0,
			"byteLength":33216,
			"byteOffset":1444720,
			"target":34962
		},
		{
			"buffer":0,
			"byteLength":22144,
			"byteOffset":1477936,
			"target":34962
		},
		{
			"buffer":0,
			"byteLength":28224,
			"byteOffset":1500080,
			"target":34963
		}
	],
	"buffers":[
		{
			"byteLength":1528304,
			"uri":"timrlai_logo_light.bin"
		}
	]
}
