<?xml version="1.0" encoding="UTF-8"?>
<svg id="Layer_2" data-name="Layer 2" xmlns="http://www.w3.org/2000/svg" viewBox="0 0 653.3 478.58">
  <defs>
    <style>
      .cls-1 {
        fill: #fffad5;
      }
    </style>
  </defs>
  <g id="Layer_1-2" data-name="Layer 1">
    <g>
      <path class="cls-1" d="M632.62,191.14c-11.42,0-20.68,9.25-20.68,20.68s9.26,20.68,20.68,20.68,20.68-9.26,20.68-20.68-9.26-20.68-20.68-20.68Z"/>
      <path class="cls-1" d="M247.28,436.67c-11.42,0-20.68,9.25-20.68,20.68s9.26,20.68,20.68,20.68,20.68-9.26,20.68-20.68-9.26-20.68-20.68-20.68Z"/>
      <path class="cls-1" d="M632.61,249.39c-11.42,0-20.68,9.26-20.68,20.68v187.62c0,11.42,9.26,20.68,20.68,20.68s20.68-9.26,20.68-20.68v-187.62c0-11.42-9.26-20.68-20.68-20.68Z"/>
      <path class="cls-1" d="M396.13,54.7c-11.35,0-20.56,9.2-20.56,20.56v68.13c0,11.35,9.2,20.56,20.56,20.56s20.56-9.2,20.56-20.56v-68.13c0-11.35-9.2-20.56-20.56-20.56Z"/>
      <path class="cls-1" d="M469.65,163.94h0c11.35,0,20.56-9.2,20.56-20.56v-68.45l45.28,51.33c3.96,4.48,9.43,6.81,14.98,6.93.22,0,.44,0,.67,0,.22,0,.44,0,.67,0,5.54-.12,11.02-2.45,14.98-6.93l45.28-51.33v68.45c0,11.35,9.2,20.56,20.56,20.56h0c11.35,0,20.56-9.2,20.56-20.56V20.56c0-.2-.02-.4-.03-.6-.01-.36-.03-.73-.06-1.09-.03-.34-.07-.67-.11-1-.04-.32-.09-.65-.15-.97-.06-.35-.14-.7-.22-1.05-.07-.3-.15-.6-.23-.89-.1-.35-.2-.69-.32-1.03-.1-.3-.21-.59-.32-.88-.13-.32-.26-.64-.4-.95-.14-.3-.28-.6-.43-.9-.15-.29-.3-.57-.46-.85-.17-.3-.36-.6-.55-.9-.17-.27-.35-.53-.53-.78-.2-.28-.41-.56-.63-.84-.21-.26-.42-.52-.64-.77-.21-.25-.43-.49-.66-.73-.26-.27-.53-.53-.8-.78-.14-.13-.27-.28-.42-.41h0c-.08-.07-.17-.13-.25-.2-.3-.25-.6-.49-.91-.73-.24-.18-.47-.36-.71-.53-.3-.21-.61-.4-.93-.6-.26-.16-.53-.33-.8-.48-.3-.17-.62-.32-.93-.47-.29-.14-.58-.29-.87-.42-.31-.14-.63-.25-.95-.37-.31-.12-.61-.24-.92-.34-.32-.1-.64-.18-.97-.27-.33-.09-.65-.18-.98-.25-.31-.07-.63-.12-.95-.17-.35-.06-.7-.12-1.06-.16-.3-.03-.61-.05-.91-.07-.38-.03-.76-.05-1.13-.06-.11,0-.22-.02-.33-.02h0c-.2,0-.4.02-.6.03-.37.01-.73.03-1.09.06-.34.03-.67.07-1,.11-.32.04-.65.09-.97.15-.35.06-.7.14-1.04.22-.3.07-.6.15-.9.23-.35.1-.69.2-1.02.32-.3.1-.59.21-.89.33-.32.12-.63.26-.94.4-.31.14-.61.28-.91.44-.28.15-.56.3-.84.46-.31.18-.61.36-.91.55-.26.17-.52.34-.77.52-.29.2-.57.41-.85.63-.26.2-.51.42-.76.63-.25.22-.5.44-.74.67-.27.26-.52.52-.77.79-.14.15-.28.27-.41.42l-66.07,74.89L485.06,6.96c-.13-.15-.28-.28-.41-.42-.25-.27-.51-.53-.77-.79-.24-.23-.49-.45-.74-.67-.25-.22-.5-.43-.76-.63-.28-.22-.56-.43-.85-.63-.25-.18-.51-.36-.77-.52-.3-.19-.6-.38-.91-.55-.28-.16-.56-.31-.84-.46-.3-.15-.6-.3-.91-.44-.31-.14-.62-.27-.94-.4-.29-.12-.59-.22-.89-.33-.34-.11-.68-.22-1.02-.32-.3-.08-.6-.16-.9-.23-.35-.08-.69-.15-1.04-.22-.32-.06-.65-.11-.97-.15-.33-.04-.66-.08-1-.11-.36-.03-.73-.04-1.09-.06-.2,0-.4-.03-.6-.03h0c-.11,0-.22.01-.33.02-.38,0-.76.03-1.13.06-.31.02-.61.04-.91.07-.35.04-.7.1-1.06.16-.32.05-.64.1-.95.17-.33.07-.65.16-.98.25-.32.09-.65.17-.97.27-.31.1-.62.22-.92.34-.32.12-.64.24-.95.37-.29.13-.58.28-.87.42-.31.15-.63.3-.93.47-.27.15-.53.32-.8.48-.31.19-.63.39-.93.6-.24.17-.48.35-.71.53-.31.24-.62.47-.91.73-.08.07-.17.13-.25.2h0c-.15.13-.27.27-.42.41-.27.26-.54.51-.8.78-.23.24-.45.48-.66.73-.22.25-.44.51-.64.77-.22.27-.42.55-.63.84-.18.26-.36.52-.53.78-.19.3-.37.59-.55.9-.16.28-.31.56-.46.85-.15.3-.3.6-.43.9-.14.31-.27.63-.4.95-.11.29-.22.59-.32.88-.12.34-.22.68-.32,1.03-.08.3-.16.59-.23.89-.08.35-.16.7-.22,1.05-.06.32-.1.64-.15.97-.04.33-.08.66-.11,1-.03.36-.04.73-.06,1.09,0,.2-.03.4-.03.6v122.83c0,11.35,9.2,20.56,20.56,20.56Z"/>
      <path class="cls-1" d="M487.29,299.91c-.05-.07-.11-.15-.17-.22l-74.55-99.38c-6.81-9.08-19.7-10.92-28.78-4.11h0c-3.85,2.89-6.39,6.88-7.52,11.2-.76,1.38-1.39,2.86-1.83,4.45l-34.37,124.06-105.55,36.94V41.36h161.73c11.42,0,20.68-9.26,20.68-20.68h0c0-11.42-9.26-20.68-20.68-20.68H20.68C9.26,0,0,9.26,0,20.68h0c0,11.42,9.26,20.68,20.68,20.68h172.47v360.64c0,.12.02.23.02.35,0,.34.03.69.05,1.04.02.37.05.74.09,1.1.03.26.08.52.12.78.07.45.15.9.25,1.35.04.17.09.34.13.52.13.52.28,1.04.45,1.55.02.05.03.1.04.15h0c.03.09.07.17.1.26.19.51.39,1.02.62,1.51.07.16.15.32.23.48.21.44.44.87.68,1.29.12.2.24.4.36.59.23.36.46.71.71,1.06.16.22.32.44.49.65.24.31.48.61.74.9.19.21.38.42.57.63.27.28.54.55.82.82.2.18.39.36.59.54.31.27.63.53.96.79.18.14.37.28.56.42.37.26.74.51,1.12.75.16.1.33.2.5.3.42.24.84.47,1.27.69.15.08.3.15.46.22.45.21.9.4,1.36.58.17.06.33.12.5.18.45.16.9.3,1.36.43.21.06.42.11.63.16.41.1.83.19,1.26.27.28.05.56.09.85.13.36.05.73.09,1.1.12.35.03.7.04,1.05.05.21,0,.42.03.63.03h0c.12,0,.24-.02.35-.02.35,0,.71-.03,1.06-.05.35-.02.71-.05,1.06-.09.29-.03.57-.08.85-.13.42-.07.84-.14,1.26-.24.21-.05.42-.11.64-.16.48-.12.95-.26,1.41-.41.07-.02.14-.04.21-.06l105.95-37.08-18.86,68.09c-3.03,10.94,3.38,22.27,14.32,25.3h0c10.94,3.03,22.27-3.38,25.3-14.32l26.48-95.6,89.53-31.33,99.37,132.47c6.81,9.08,19.7,10.92,28.78,4.11h0c9.08-6.81,10.92-19.7,4.11-28.78l-108.37-144.46ZM387.31,319.38l17.04-61.51,33.01,44-50.05,17.51Z"/>
      <path class="cls-1" d="M124.71,362.21c14.35-10.08,23.75-26.75,23.75-45.62v-59.92c0-35.62-28.88-64.5-64.5-64.5H26.09c-14.41,0-26.09,11.68-26.09,26.09v239.42c0,11.42,9.26,20.68,20.68,20.68s20.68-9.26,20.68-20.68v-85.38h42.93l35.13,92.59c4.05,10.68,15.99,16.05,26.67,12,10.68-4.05,16.05-15.99,12-26.67l-33.4-88.02ZM110.29,305.47c0,16.36-13.26,29.63-29.63,29.63h-38.3v-105.9h29.52c21.21,0,38.41,17.2,38.41,38.41v37.86Z"/>
    </g>
  </g>
</svg>