<?xml version="1.0" encoding="UTF-8"?>
<svg id="Layer_2" data-name="Layer 2" xmlns="http://www.w3.org/2000/svg" viewBox="0 0 653.3 478.58">
  <defs>
    <style>
      .cls-1 {
        fill: #006177;
      }
    </style>
  </defs>
  <g id="Layer_1-2" data-name="Layer 1">
    <g>
      <path class="cls-1" d="M653.3,211.81c0,11.42-9.26,20.68-20.68,20.68s-20.68-9.26-20.68-20.68,9.26-20.68,20.68-20.68,20.68,9.25,20.68,20.68Z"/>
      <path class="cls-1" d="M267.96,457.34c0,11.42-9.26,20.68-20.68,20.68s-20.68-9.26-20.68-20.68,9.26-20.68,20.68-20.68,20.68,9.25,20.68,20.68Z"/>
      <path class="cls-1" d="M653.3,457.68c0,11.42-9.26,20.68-20.68,20.68h0c-11.42,0-20.68-9.26-20.68-20.68v-187.62c0-11.42,9.26-20.68,20.68-20.68h0c11.43,0,20.68,9.26,20.68,20.68v187.62Z"/>
      <rect class="cls-1" x="185.52" y="336.39" width="313.4" height="41.36" rx="20.68" ry="20.68" transform="translate(-98.74 133.09) rotate(-19.29)"/>
      <rect class="cls-1" x="193.15" y="0" width="41.36" height="422.68" rx="20.68" ry="20.68"/>
      <rect class="cls-1" x="0" y="0" width="416.93" height="41.36" rx="20.68" ry="20.68"/>
      <rect class="cls-1" x="375.57" y="54.7" width="41.11" height="109.24" rx="20.56" ry="20.56"/>
      <rect class="cls-1" x="449.09" y="0" width="41.11" height="163.94" rx="20.56" ry="20.56"/>
      <rect class="cls-1" x="612.06" y="0" width="41.11" height="163.94" rx="20.56" ry="20.56"/>
      <rect class="cls-1" x="489.72" y="-15.36" width="41.11" height="163.94" rx="20.56" ry="20.56" transform="translate(83.56 354.24) rotate(-41.42)"/>
      <rect class="cls-1" x="571.43" y="-15.36" width="41.11" height="163.94" rx="20.56" ry="20.56" transform="translate(991.85 508.19) rotate(-138.58)"/>
      <rect class="cls-1" x="340.35" y="192.25" width="41.11" height="290.86" rx="20.56" ry="20.56" transform="translate(103.24 -84.09) rotate(15.48)"/>
      <rect class="cls-1" x="467.11" y="161.57" width="41.11" height="346.21" rx="20.56" ry="20.56" transform="translate(-103.27 359.6) rotate(-36.88)"/>
      <path class="cls-1" d="M158.1,450.23l-33.4-88.02c14.35-10.08,23.75-26.75,23.75-45.62v-59.92c0-35.62-28.88-64.5-64.5-64.5H26.09c-14.41,0-26.09,11.68-26.09,26.09v239.42c0,11.42,9.26,20.68,20.68,20.68s20.68-9.26,20.68-20.68v-85.38h42.93l35.13,92.59c4.05,10.68,15.99,16.05,26.67,12,10.68-4.05,16.05-15.99,12-26.67ZM110.29,305.47c0,16.36-13.26,29.63-29.63,29.63h-38.3v-105.9h29.52c21.21,0,38.41,17.2,38.41,38.41v37.86Z"/>
    </g>
  </g>
</svg>